<mxfile host="Electron" modified="2023-04-23T09:25:19.938Z" agent="Mozilla/5.0 (Windows NT 10.0; Win64; x64) AppleWebKit/537.36 (KHTML, like Gecko) draw.io/21.2.1 Chrome/112.0.5615.87 Electron/24.1.2 Safari/537.36" etag="4gndtJ1zR7uSQcQ1bJlN" version="21.2.1" type="device">
  <diagram id="D0XWlHCJQUoisnv8UVIx" name="ページ1">
    <mxGraphModel dx="1434" dy="2005" grid="1" gridSize="10" guides="1" tooltips="1" connect="1" arrows="1" fold="1" page="1" pageScale="1" pageWidth="827" pageHeight="1169" math="0" shadow="0">
      <root>
        <mxCell id="0" />
        <mxCell id="1" parent="0" />
        <mxCell id="qWLIcdCoABAimz0KrmdH-1" value="Block" style="swimlane;fontStyle=1;align=center;verticalAlign=top;childLayout=stackLayout;horizontal=1;startSize=26;horizontalStack=0;resizeParent=1;resizeParentMax=0;resizeLast=0;collapsible=1;marginBottom=0;" parent="1" vertex="1">
          <mxGeometry x="310" y="250" width="290" height="290" as="geometry" />
        </mxCell>
        <mxCell id="qWLIcdCoABAimz0KrmdH-2" value="+ type : EBlockType&#xa;+ position : Vector2Int&#xa;+ fallProgress : float&#xa;+ isSquareParts : bool&#xa;+ IsHaveCollision : bool&#xa;+ eraceProgress : float&#xa;+ onFall1Block : event&#xa;+ onFallEdge : event" style="text;strokeColor=none;fillColor=none;align=left;verticalAlign=top;spacingLeft=4;spacingRight=4;overflow=hidden;rotatable=0;points=[[0,0.5],[1,0.5]];portConstraint=eastwest;" parent="qWLIcdCoABAimz0KrmdH-1" vertex="1">
          <mxGeometry y="26" width="290" height="154" as="geometry" />
        </mxCell>
        <mxCell id="qWLIcdCoABAimz0KrmdH-3" value="" style="line;strokeWidth=1;fillColor=none;align=left;verticalAlign=middle;spacingTop=-1;spacingLeft=3;spacingRight=3;rotatable=0;labelPosition=right;points=[];portConstraint=eastwest;strokeColor=inherit;" parent="qWLIcdCoABAimz0KrmdH-1" vertex="1">
          <mxGeometry y="180" width="290" height="8" as="geometry" />
        </mxCell>
        <mxCell id="qWLIcdCoABAimz0KrmdH-4" value="+ Update(float delta) : void&#xa;+ UseSquareParts() : void&#xa;+ Erace():void" style="text;strokeColor=none;fillColor=none;align=left;verticalAlign=top;spacingLeft=4;spacingRight=4;overflow=hidden;rotatable=0;points=[[0,0.5],[1,0.5]];portConstraint=eastwest;" parent="qWLIcdCoABAimz0KrmdH-1" vertex="1">
          <mxGeometry y="188" width="290" height="102" as="geometry" />
        </mxCell>
        <mxCell id="qWLIcdCoABAimz0KrmdH-5" value="Field" style="swimlane;fontStyle=1;align=center;verticalAlign=top;childLayout=stackLayout;horizontal=1;startSize=26;horizontalStack=0;resizeParent=1;resizeParentMax=0;resizeLast=0;collapsible=1;marginBottom=0;" parent="1" vertex="1">
          <mxGeometry x="960" y="20" width="160" height="86" as="geometry" />
        </mxCell>
        <mxCell id="qWLIcdCoABAimz0KrmdH-6" value="+ blocks : TArray&lt;Block&gt;" style="text;strokeColor=none;fillColor=none;align=left;verticalAlign=top;spacingLeft=4;spacingRight=4;overflow=hidden;rotatable=0;points=[[0,0.5],[1,0.5]];portConstraint=eastwest;" parent="qWLIcdCoABAimz0KrmdH-5" vertex="1">
          <mxGeometry y="26" width="160" height="26" as="geometry" />
        </mxCell>
        <mxCell id="qWLIcdCoABAimz0KrmdH-7" value="" style="line;strokeWidth=1;fillColor=none;align=left;verticalAlign=middle;spacingTop=-1;spacingLeft=3;spacingRight=3;rotatable=0;labelPosition=right;points=[];portConstraint=eastwest;strokeColor=inherit;" parent="qWLIcdCoABAimz0KrmdH-5" vertex="1">
          <mxGeometry y="52" width="160" height="8" as="geometry" />
        </mxCell>
        <mxCell id="qWLIcdCoABAimz0KrmdH-8" value="+ method(type): type" style="text;strokeColor=none;fillColor=none;align=left;verticalAlign=top;spacingLeft=4;spacingRight=4;overflow=hidden;rotatable=0;points=[[0,0.5],[1,0.5]];portConstraint=eastwest;" parent="qWLIcdCoABAimz0KrmdH-5" vertex="1">
          <mxGeometry y="60" width="160" height="26" as="geometry" />
        </mxCell>
        <mxCell id="f2ziRyXbHSZgRYPEWzMf-6" value="ControllPiece" style="swimlane;fontStyle=1;align=center;verticalAlign=top;childLayout=stackLayout;horizontal=1;startSize=26;horizontalStack=0;resizeParent=1;resizeParentMax=0;resizeLast=0;collapsible=1;marginBottom=0;whiteSpace=wrap;html=1;" vertex="1" parent="1">
          <mxGeometry x="900" y="250" width="210" height="86" as="geometry" />
        </mxCell>
        <mxCell id="f2ziRyXbHSZgRYPEWzMf-7" value="+ havePirce : Piece*" style="text;strokeColor=none;fillColor=none;align=left;verticalAlign=top;spacingLeft=4;spacingRight=4;overflow=hidden;rotatable=0;points=[[0,0.5],[1,0.5]];portConstraint=eastwest;whiteSpace=wrap;html=1;" vertex="1" parent="f2ziRyXbHSZgRYPEWzMf-6">
          <mxGeometry y="26" width="210" height="26" as="geometry" />
        </mxCell>
        <mxCell id="f2ziRyXbHSZgRYPEWzMf-8" value="" style="line;strokeWidth=1;fillColor=none;align=left;verticalAlign=middle;spacingTop=-1;spacingLeft=3;spacingRight=3;rotatable=0;labelPosition=right;points=[];portConstraint=eastwest;strokeColor=inherit;" vertex="1" parent="f2ziRyXbHSZgRYPEWzMf-6">
          <mxGeometry y="52" width="210" height="8" as="geometry" />
        </mxCell>
        <mxCell id="f2ziRyXbHSZgRYPEWzMf-9" value="+ method(type): type" style="text;strokeColor=none;fillColor=none;align=left;verticalAlign=top;spacingLeft=4;spacingRight=4;overflow=hidden;rotatable=0;points=[[0,0.5],[1,0.5]];portConstraint=eastwest;whiteSpace=wrap;html=1;" vertex="1" parent="f2ziRyXbHSZgRYPEWzMf-6">
          <mxGeometry y="60" width="210" height="26" as="geometry" />
        </mxCell>
        <mxCell id="f2ziRyXbHSZgRYPEWzMf-25" style="edgeStyle=orthogonalEdgeStyle;rounded=0;orthogonalLoop=1;jettySize=auto;html=1;endArrow=diamondThin;endFill=1;endSize=16;" edge="1" parent="1" source="f2ziRyXbHSZgRYPEWzMf-11">
          <mxGeometry relative="1" as="geometry">
            <mxPoint x="1310" y="110" as="targetPoint" />
          </mxGeometry>
        </mxCell>
        <mxCell id="f2ziRyXbHSZgRYPEWzMf-11" value="InGameManager" style="swimlane;fontStyle=1;align=center;verticalAlign=top;childLayout=stackLayout;horizontal=1;startSize=26;horizontalStack=0;resizeParent=1;resizeParentMax=0;resizeLast=0;collapsible=1;marginBottom=0;whiteSpace=wrap;html=1;" vertex="1" parent="1">
          <mxGeometry x="1230" y="250" width="160" height="86" as="geometry" />
        </mxCell>
        <mxCell id="f2ziRyXbHSZgRYPEWzMf-12" value="+ field: type" style="text;strokeColor=none;fillColor=none;align=left;verticalAlign=top;spacingLeft=4;spacingRight=4;overflow=hidden;rotatable=0;points=[[0,0.5],[1,0.5]];portConstraint=eastwest;whiteSpace=wrap;html=1;" vertex="1" parent="f2ziRyXbHSZgRYPEWzMf-11">
          <mxGeometry y="26" width="160" height="26" as="geometry" />
        </mxCell>
        <mxCell id="f2ziRyXbHSZgRYPEWzMf-13" value="" style="line;strokeWidth=1;fillColor=none;align=left;verticalAlign=middle;spacingTop=-1;spacingLeft=3;spacingRight=3;rotatable=0;labelPosition=right;points=[];portConstraint=eastwest;strokeColor=inherit;" vertex="1" parent="f2ziRyXbHSZgRYPEWzMf-11">
          <mxGeometry y="52" width="160" height="8" as="geometry" />
        </mxCell>
        <mxCell id="f2ziRyXbHSZgRYPEWzMf-14" value="+ method(type): type" style="text;strokeColor=none;fillColor=none;align=left;verticalAlign=top;spacingLeft=4;spacingRight=4;overflow=hidden;rotatable=0;points=[[0,0.5],[1,0.5]];portConstraint=eastwest;whiteSpace=wrap;html=1;" vertex="1" parent="f2ziRyXbHSZgRYPEWzMf-11">
          <mxGeometry y="60" width="160" height="26" as="geometry" />
        </mxCell>
        <mxCell id="f2ziRyXbHSZgRYPEWzMf-15" value="PlayerGameInput" style="swimlane;fontStyle=1;align=center;verticalAlign=top;childLayout=stackLayout;horizontal=1;startSize=26;horizontalStack=0;resizeParent=1;resizeParentMax=0;resizeLast=0;collapsible=1;marginBottom=0;whiteSpace=wrap;html=1;" vertex="1" parent="1">
          <mxGeometry x="860" y="-150" width="160" height="86" as="geometry" />
        </mxCell>
        <mxCell id="f2ziRyXbHSZgRYPEWzMf-16" value="+ field: type" style="text;strokeColor=none;fillColor=none;align=left;verticalAlign=top;spacingLeft=4;spacingRight=4;overflow=hidden;rotatable=0;points=[[0,0.5],[1,0.5]];portConstraint=eastwest;whiteSpace=wrap;html=1;" vertex="1" parent="f2ziRyXbHSZgRYPEWzMf-15">
          <mxGeometry y="26" width="160" height="26" as="geometry" />
        </mxCell>
        <mxCell id="f2ziRyXbHSZgRYPEWzMf-17" value="" style="line;strokeWidth=1;fillColor=none;align=left;verticalAlign=middle;spacingTop=-1;spacingLeft=3;spacingRight=3;rotatable=0;labelPosition=right;points=[];portConstraint=eastwest;strokeColor=inherit;" vertex="1" parent="f2ziRyXbHSZgRYPEWzMf-15">
          <mxGeometry y="52" width="160" height="8" as="geometry" />
        </mxCell>
        <mxCell id="f2ziRyXbHSZgRYPEWzMf-18" value="+ method(type): type" style="text;strokeColor=none;fillColor=none;align=left;verticalAlign=top;spacingLeft=4;spacingRight=4;overflow=hidden;rotatable=0;points=[[0,0.5],[1,0.5]];portConstraint=eastwest;whiteSpace=wrap;html=1;" vertex="1" parent="f2ziRyXbHSZgRYPEWzMf-15">
          <mxGeometry y="60" width="160" height="26" as="geometry" />
        </mxCell>
        <mxCell id="f2ziRyXbHSZgRYPEWzMf-30" style="edgeStyle=orthogonalEdgeStyle;rounded=0;orthogonalLoop=1;jettySize=auto;html=1;endSize=16;endArrow=diamondThin;endFill=0;" edge="1" parent="1" source="f2ziRyXbHSZgRYPEWzMf-19">
          <mxGeometry relative="1" as="geometry">
            <mxPoint x="1310" y="-60" as="targetPoint" />
            <Array as="points">
              <mxPoint x="1310" />
              <mxPoint x="1310" />
            </Array>
          </mxGeometry>
        </mxCell>
        <mxCell id="f2ziRyXbHSZgRYPEWzMf-19" value="PlayerInGameLogic" style="swimlane;fontStyle=1;align=center;verticalAlign=top;childLayout=stackLayout;horizontal=1;startSize=26;horizontalStack=0;resizeParent=1;resizeParentMax=0;resizeLast=0;collapsible=1;marginBottom=0;whiteSpace=wrap;html=1;" vertex="1" parent="1">
          <mxGeometry x="1180" y="20" width="270" height="86" as="geometry" />
        </mxCell>
        <mxCell id="f2ziRyXbHSZgRYPEWzMf-20" value="- CurrentState : PlayerGameLogicState*" style="text;strokeColor=none;fillColor=none;align=left;verticalAlign=top;spacingLeft=4;spacingRight=4;overflow=hidden;rotatable=0;points=[[0,0.5],[1,0.5]];portConstraint=eastwest;whiteSpace=wrap;html=1;" vertex="1" parent="f2ziRyXbHSZgRYPEWzMf-19">
          <mxGeometry y="26" width="270" height="26" as="geometry" />
        </mxCell>
        <mxCell id="f2ziRyXbHSZgRYPEWzMf-21" value="" style="line;strokeWidth=1;fillColor=none;align=left;verticalAlign=middle;spacingTop=-1;spacingLeft=3;spacingRight=3;rotatable=0;labelPosition=right;points=[];portConstraint=eastwest;strokeColor=inherit;" vertex="1" parent="f2ziRyXbHSZgRYPEWzMf-19">
          <mxGeometry y="52" width="270" height="8" as="geometry" />
        </mxCell>
        <mxCell id="f2ziRyXbHSZgRYPEWzMf-22" value="+ method(type): type" style="text;strokeColor=none;fillColor=none;align=left;verticalAlign=top;spacingLeft=4;spacingRight=4;overflow=hidden;rotatable=0;points=[[0,0.5],[1,0.5]];portConstraint=eastwest;whiteSpace=wrap;html=1;" vertex="1" parent="f2ziRyXbHSZgRYPEWzMf-19">
          <mxGeometry y="60" width="270" height="26" as="geometry" />
        </mxCell>
        <mxCell id="f2ziRyXbHSZgRYPEWzMf-26" value="PlayerGameLogicState" style="swimlane;fontStyle=1;align=center;verticalAlign=top;childLayout=stackLayout;horizontal=1;startSize=26;horizontalStack=0;resizeParent=1;resizeParentMax=0;resizeLast=0;collapsible=1;marginBottom=0;whiteSpace=wrap;html=1;" vertex="1" parent="1">
          <mxGeometry x="1230" y="-150" width="160" height="86" as="geometry" />
        </mxCell>
        <mxCell id="f2ziRyXbHSZgRYPEWzMf-27" value="+ field: type" style="text;strokeColor=none;fillColor=none;align=left;verticalAlign=top;spacingLeft=4;spacingRight=4;overflow=hidden;rotatable=0;points=[[0,0.5],[1,0.5]];portConstraint=eastwest;whiteSpace=wrap;html=1;" vertex="1" parent="f2ziRyXbHSZgRYPEWzMf-26">
          <mxGeometry y="26" width="160" height="26" as="geometry" />
        </mxCell>
        <mxCell id="f2ziRyXbHSZgRYPEWzMf-28" value="" style="line;strokeWidth=1;fillColor=none;align=left;verticalAlign=middle;spacingTop=-1;spacingLeft=3;spacingRight=3;rotatable=0;labelPosition=right;points=[];portConstraint=eastwest;strokeColor=inherit;" vertex="1" parent="f2ziRyXbHSZgRYPEWzMf-26">
          <mxGeometry y="52" width="160" height="8" as="geometry" />
        </mxCell>
        <mxCell id="f2ziRyXbHSZgRYPEWzMf-29" value="+ method(type): type" style="text;strokeColor=none;fillColor=none;align=left;verticalAlign=top;spacingLeft=4;spacingRight=4;overflow=hidden;rotatable=0;points=[[0,0.5],[1,0.5]];portConstraint=eastwest;whiteSpace=wrap;html=1;" vertex="1" parent="f2ziRyXbHSZgRYPEWzMf-26">
          <mxGeometry y="60" width="160" height="26" as="geometry" />
        </mxCell>
        <mxCell id="f2ziRyXbHSZgRYPEWzMf-54" style="edgeStyle=orthogonalEdgeStyle;rounded=0;orthogonalLoop=1;jettySize=auto;html=1;endSize=16;endArrow=diamondThin;endFill=0;" edge="1" parent="1" source="f2ziRyXbHSZgRYPEWzMf-33">
          <mxGeometry relative="1" as="geometry">
            <mxPoint x="790" y="430" as="targetPoint" />
          </mxGeometry>
        </mxCell>
        <mxCell id="f2ziRyXbHSZgRYPEWzMf-33" value="NextPieces" style="swimlane;fontStyle=1;align=center;verticalAlign=top;childLayout=stackLayout;horizontal=1;startSize=26;horizontalStack=0;resizeParent=1;resizeParentMax=0;resizeLast=0;collapsible=1;marginBottom=0;whiteSpace=wrap;html=1;" vertex="1" parent="1">
          <mxGeometry x="950" y="440" width="160" height="86" as="geometry" />
        </mxCell>
        <mxCell id="f2ziRyXbHSZgRYPEWzMf-34" value="+ field: type" style="text;strokeColor=none;fillColor=none;align=left;verticalAlign=top;spacingLeft=4;spacingRight=4;overflow=hidden;rotatable=0;points=[[0,0.5],[1,0.5]];portConstraint=eastwest;whiteSpace=wrap;html=1;" vertex="1" parent="f2ziRyXbHSZgRYPEWzMf-33">
          <mxGeometry y="26" width="160" height="26" as="geometry" />
        </mxCell>
        <mxCell id="f2ziRyXbHSZgRYPEWzMf-35" value="" style="line;strokeWidth=1;fillColor=none;align=left;verticalAlign=middle;spacingTop=-1;spacingLeft=3;spacingRight=3;rotatable=0;labelPosition=right;points=[];portConstraint=eastwest;strokeColor=inherit;" vertex="1" parent="f2ziRyXbHSZgRYPEWzMf-33">
          <mxGeometry y="52" width="160" height="8" as="geometry" />
        </mxCell>
        <mxCell id="f2ziRyXbHSZgRYPEWzMf-36" value="+ method(type): type" style="text;strokeColor=none;fillColor=none;align=left;verticalAlign=top;spacingLeft=4;spacingRight=4;overflow=hidden;rotatable=0;points=[[0,0.5],[1,0.5]];portConstraint=eastwest;whiteSpace=wrap;html=1;" vertex="1" parent="f2ziRyXbHSZgRYPEWzMf-33">
          <mxGeometry y="60" width="160" height="26" as="geometry" />
        </mxCell>
        <mxCell id="f2ziRyXbHSZgRYPEWzMf-38" style="edgeStyle=orthogonalEdgeStyle;rounded=0;orthogonalLoop=1;jettySize=auto;html=1;entryX=1;entryY=0.5;entryDx=0;entryDy=0;endSize=16;endArrow=diamondThin;endFill=1;" edge="1" parent="1" source="f2ziRyXbHSZgRYPEWzMf-12" target="qWLIcdCoABAimz0KrmdH-6">
          <mxGeometry relative="1" as="geometry">
            <Array as="points">
              <mxPoint x="1160" y="289" />
              <mxPoint x="1160" y="59" />
            </Array>
          </mxGeometry>
        </mxCell>
        <mxCell id="f2ziRyXbHSZgRYPEWzMf-40" style="edgeStyle=orthogonalEdgeStyle;rounded=0;orthogonalLoop=1;jettySize=auto;html=1;exitX=0;exitY=0.5;exitDx=0;exitDy=0;endArrow=diamondThin;endFill=1;endSize=16;" edge="1" parent="1" source="f2ziRyXbHSZgRYPEWzMf-12" target="f2ziRyXbHSZgRYPEWzMf-7">
          <mxGeometry relative="1" as="geometry" />
        </mxCell>
        <mxCell id="f2ziRyXbHSZgRYPEWzMf-41" style="edgeStyle=orthogonalEdgeStyle;rounded=0;orthogonalLoop=1;jettySize=auto;html=1;entryX=1.025;entryY=0.808;entryDx=0;entryDy=0;entryPerimeter=0;endArrow=diamondThin;endFill=1;endSize=16;" edge="1" parent="1" source="f2ziRyXbHSZgRYPEWzMf-12" target="f2ziRyXbHSZgRYPEWzMf-34">
          <mxGeometry relative="1" as="geometry">
            <Array as="points">
              <mxPoint x="1160" y="289" />
              <mxPoint x="1160" y="487" />
            </Array>
          </mxGeometry>
        </mxCell>
        <mxCell id="f2ziRyXbHSZgRYPEWzMf-52" style="edgeStyle=orthogonalEdgeStyle;rounded=0;orthogonalLoop=1;jettySize=auto;html=1;entryX=1.007;entryY=0.675;entryDx=0;entryDy=0;entryPerimeter=0;endArrow=diamondThin;endFill=0;endSize=16;" edge="1" parent="1" source="f2ziRyXbHSZgRYPEWzMf-42" target="qWLIcdCoABAimz0KrmdH-2">
          <mxGeometry relative="1" as="geometry">
            <Array as="points">
              <mxPoint x="670" y="380" />
              <mxPoint x="670" y="380" />
            </Array>
          </mxGeometry>
        </mxCell>
        <mxCell id="f2ziRyXbHSZgRYPEWzMf-42" value="Piece" style="swimlane;fontStyle=1;align=center;verticalAlign=top;childLayout=stackLayout;horizontal=1;startSize=26;horizontalStack=0;resizeParent=1;resizeParentMax=0;resizeLast=0;collapsible=1;marginBottom=0;whiteSpace=wrap;html=1;" vertex="1" parent="1">
          <mxGeometry x="690" y="336" width="190" height="86" as="geometry" />
        </mxCell>
        <mxCell id="f2ziRyXbHSZgRYPEWzMf-43" value="+ haveBlocks: TArray&amp;lt;Block&amp;gt;" style="text;strokeColor=none;fillColor=none;align=left;verticalAlign=top;spacingLeft=4;spacingRight=4;overflow=hidden;rotatable=0;points=[[0,0.5],[1,0.5]];portConstraint=eastwest;whiteSpace=wrap;html=1;" vertex="1" parent="f2ziRyXbHSZgRYPEWzMf-42">
          <mxGeometry y="26" width="190" height="26" as="geometry" />
        </mxCell>
        <mxCell id="f2ziRyXbHSZgRYPEWzMf-44" value="" style="line;strokeWidth=1;fillColor=none;align=left;verticalAlign=middle;spacingTop=-1;spacingLeft=3;spacingRight=3;rotatable=0;labelPosition=right;points=[];portConstraint=eastwest;strokeColor=inherit;" vertex="1" parent="f2ziRyXbHSZgRYPEWzMf-42">
          <mxGeometry y="52" width="190" height="8" as="geometry" />
        </mxCell>
        <mxCell id="f2ziRyXbHSZgRYPEWzMf-45" value="+ method(type): type" style="text;strokeColor=none;fillColor=none;align=left;verticalAlign=top;spacingLeft=4;spacingRight=4;overflow=hidden;rotatable=0;points=[[0,0.5],[1,0.5]];portConstraint=eastwest;whiteSpace=wrap;html=1;" vertex="1" parent="f2ziRyXbHSZgRYPEWzMf-42">
          <mxGeometry y="60" width="190" height="26" as="geometry" />
        </mxCell>
        <mxCell id="f2ziRyXbHSZgRYPEWzMf-51" style="edgeStyle=orthogonalEdgeStyle;rounded=0;orthogonalLoop=1;jettySize=auto;html=1;endArrow=diamondThin;endFill=0;endSize=16;" edge="1" parent="1" source="qWLIcdCoABAimz0KrmdH-6" target="qWLIcdCoABAimz0KrmdH-1">
          <mxGeometry relative="1" as="geometry" />
        </mxCell>
        <mxCell id="f2ziRyXbHSZgRYPEWzMf-53" style="edgeStyle=orthogonalEdgeStyle;rounded=0;orthogonalLoop=1;jettySize=auto;html=1;endSize=16;endArrow=diamondThin;endFill=0;" edge="1" parent="1" source="f2ziRyXbHSZgRYPEWzMf-7" target="f2ziRyXbHSZgRYPEWzMf-42">
          <mxGeometry relative="1" as="geometry" />
        </mxCell>
      </root>
    </mxGraphModel>
  </diagram>
</mxfile>
